<svg xmlns="http://www.w3.org/2000/svg" width="32" height="32"><style>@media (prefers-color-scheme:dark){path{fill:#f9f9f9}}</style><path fill="#292929" d="M9.4 4a2 2 0 0 0-2 2 2 2 0 0 0 2 2 2 2 0 0 0 2-2 2 2 0 0 0-2-2m13.2 0a2 2 0 0 0-2 2 2 2 0 0 0 2 2 2 2 0 0 0 2-2 2 2 0 0 0-2-2M9.4 9a2 2 0 0 0-2 2 2 2 0 0 0 2 2 2 2 0 0 0 2-2 2 2 0 0 0-2-2m13.2 0a2 2 0 0 0-2 2 2 2 0 0 0 2 2 2 2 0 0 0 2-2 2 2 0 0 0-2-2m-8.854.002a2 2 0 0 0-1.096.266A2 2 0 0 0 11.918 12a2 2 0 0 0 2.732.732A2 2 0 0 0 15.383 10a2 2 0 0 0-1.637-.998M9.4 14a2 2 0 0 0-2 2 2 2 0 0 0 2 2 2 2 0 0 0 2-2 2 2 0 0 0-2-2m13.2 0a2 2 0 0 0-2 2 2 2 0 0 0 2 2 2 2 0 0 0 2-2 2 2 0 0 0-2-2m-6.504.002a2 2 0 0 0-1.096.266A2 2 0 0 0 14.268 17a2 2 0 0 0 2.732.732A2 2 0 0 0 17.732 15a2 2 0 0 0-1.636-.998M9.4 19a2 2 0 0 0-2 2 2 2 0 0 0 2 2 2 2 0 0 0 2-2 2 2 0 0 0-2-2m13.2 0a2 2 0 0 0-2 2 2 2 0 0 0 2 2 2 2 0 0 0 2-2 2 2 0 0 0-2-2m-4.155.002a2 2 0 0 0-1.095.266A2 2 0 0 0 16.617 22a2 2 0 0 0 2.733.732 2 2 0 0 0 1-1.732 2 2 0 0 0-.268-1 2 2 0 0 0-1.637-.998M9.4 24a2 2 0 0 0-2 2 2 2 0 0 0 2 2 2 2 0 0 0 2-2 2 2 0 0 0-2-2m13.2 0a2 2 0 0 0-2 2 2 2 0 0 0 2 2 2 2 0 0 0 2-2 2 2 0 0 0-2-2"/></svg>